<svg width="1255.98505859375px" height="120.8099609375px" xmlns="http://www.w3.org/2000/svg" viewBox="-377.992529296875 14.595019531250003 1255.98505859375 120.8099609375" style="background: rgba(0, 0, 0, 0);" preserveAspectRatio="xMidYMid"><defs><linearGradient id="editing-shiny-gradient" x1="0.04322727117869957" x2="0.9567727288213004" y1="0.2966316784620999" y2="0.7033683215379001" gradientUnits="objectBoundingBox"><stop offset="0.0" stop-color="#191305"></stop><stop offset="0.5" stop-color="#190f13"></stop><stop offset="1.0" stop-color="#5a1a80"></stop></linearGradient><linearGradient id="editing-shiny-gradient2" x1="0" x2="0" y1="0" y2="1"><stop offset="0.2" stop-color="#fff" stop-opacity="0.8"></stop><stop offset="0.8" stop-color="#fff" stop-opacity="0"></stop></linearGradient><filter id="editing-shiny2" x="-100%" y="-100%" width="300%" height="300%"><feMorphology operator="erode" radius="2"></feMorphology></filter><filter id="editing-shiny" x="-100%" y="-100%" width="300%" height="300%"><feFlood flood-color="#fff" result="flood"></feFlood><feConvolveMatrix in="SourceGraphic" result="conv" order="8,8" divisor="1" kernelMatrix="0 0 0 0 0 0 0 0 0 0 0 1 1 0 0 0 0 0 0 1 1 0 0 0 0 0 1 0 0 1 0 0 0 0 1 0 0 1 0 0 0 1 0 0 0 0 1 0 0 1 1 0 0 1 1 0 0 0 0 1 1 0 0 0 "></feConvolveMatrix><feOffset dx="0" dy="4" in="conv" result="offset"></feOffset><feComposite operator="in" in="flood" in2="offset" result="comp"></feComposite><feGaussianBlur in="offset" stdDeviation="3" result="shadow"></feGaussianBlur><feColorMatrix in="shadow" type="matrix" values="0.7 0 0 0 0  0 0.7 0 0 0  0 0 0.7 0 0  0 0 0 0.3 0" result="dark-shadow"></feColorMatrix><feOffset dx="0" dy="4" in="dark-shadow" result="offset-shadow"></feOffset><feOffset dx="0" dy="2" in="conv" result="offset-2"></feOffset><feComposite operator="out" in="offset" in2="offset-2" result="edge-diff"></feComposite><feGaussianBlur in="edge-diff" stdDeviation="1" result="edge-blur"></feGaussianBlur><feColorMatrix in="edge-blur" result="edge-shadow" type="matrix" values="0 0 0 0 0  0 0 0 0 0  0 0 0 0 0  0 0 0 0.5 0"></feColorMatrix><feComposite operator="in" in="edge-shadow" in2="offset" result="edge-shadow-in"></feComposite><feOffset dx="0" dy="1" in="edge-shadow-in" result="edge-shadow-final"></feOffset><feMerge result="out"><feMergeNode in="offset-shadow"></feMergeNode><feMergeNode in="comp"></feMergeNode><feMergeNode in="edge-shadow-final"></feMergeNode><feMergeNode in="SourceGraphic"></feMergeNode></feMerge></filter></defs><g filter="url(#editing-shiny)"><g transform="translate(-205.26498556137085, 104.76000022888184)"><path d="M6.21-31.17L6.21-31.17L6.21-31.17Q4.03-32.83 4.03-36.38L4.03-36.38L4.03-36.38Q4.03-39.94 6.37-41.79L6.37-41.79L6.37-41.79Q8.70-43.65 12.74-43.65L12.74-43.65L12.74-43.65Q15.30-43.65 21.38-42.75L21.38-42.75L25.73-42.11L25.73-42.11Q27.90-41.86 30.18-41.86L30.18-41.86L30.18-41.86Q32.45-41.86 33.98-42.82L33.98-42.82L33.98-42.82Q36.29-40.77 36.29-37.82L36.29-37.82L36.29-37.82Q36.29-34.88 33.66-32.77L33.66-32.77L33.66-32.77Q30.98-30.53 27.52-30.53L27.52-30.53L27.52-30.53Q25.86-30.53 23.17-30.98L23.17-30.98L23.17-30.98Q20.03-21.12 20.03-14.27L20.03-14.27L20.03-14.27Q20.03-7.42 23.49-3.84L23.49-3.84L23.49-3.84Q21.89-0.96 19.52 0.16L19.52 0.16L19.52 0.16Q17.15 1.28 13.60 1.28L13.60 1.28L13.60 1.28Q10.05 1.28 7.84-0.67L7.84-0.67L7.84-0.67Q5.63-2.62 5.63-6.66L5.63-6.66L5.63-6.66Q5.63-11.33 8.19-19.01L8.19-19.01L8.19-19.01Q10.75-26.62 14.59-32.45L14.59-32.45L14.59-32.45Q12.74-32.64 10.82-32.64L10.82-32.64L10.82-32.64Q6.85-32.64 6.21-31.17ZM49.60-3.52L49.60-3.52L49.60-3.52Q47.62 1.28 41.28 1.28L41.28 1.28L41.28 1.28Q38.02 1.28 35.97-0.96L35.97-0.96L35.97-0.96Q34.24-2.94 34.24-4.93L34.24-4.93L34.24-4.93Q34.24-10.11 36.61-20.22L36.61-20.22L38.98-32.64L51.97-33.92L48.06-13.70L48.06-13.70Q46.98-8.96 46.98-7.30L46.98-7.30L46.98-7.30Q46.98-3.65 49.60-3.52ZM40.13-41.54L40.13-41.54L40.13-41.54Q40.13-44.03 42.21-45.38L42.21-45.38L42.21-45.38Q44.29-46.72 47.30-46.72L47.30-46.72L47.30-46.72Q50.30-46.72 52.13-45.38L52.13-45.38L52.13-45.38Q53.95-44.03 53.95-41.54L53.95-41.54L53.95-41.54Q53.95-39.04 51.94-37.76L51.94-37.76L51.94-37.76Q49.92-36.48 46.91-36.48L46.91-36.48L46.91-36.48Q43.90-36.48 42.02-37.76L42.02-37.76L42.02-37.76Q40.13-39.04 40.13-41.54ZM82.11 1.28L82.11 1.28L82.11 1.28Q74.37 1.28 74.37-4.74L74.37-4.74L74.37-4.74Q74.43-6.40 74.94-9.22L74.94-9.22L76.10-15.10L76.10-15.10Q77.82-23.42 77.82-25.28L77.82-25.28L77.82-25.28Q77.82-28.99 75.65-28.99L75.65-28.99L75.65-28.99Q72-28.99 70.08-19.46L70.08-19.46L66.30 0L53.44 1.28L60.10-32.70L70.59-33.92L69.57-27.65L69.57-27.65Q72.58-33.92 81.79-33.92L81.79-33.92L81.79-33.92Q86.27-33.92 88.16-32.03L88.16-32.03L88.16-32.03Q90.05-30.14 90.05-25.92L90.05-25.92L90.05-25.92Q90.05-21.95 88-12.67L88-12.67L88-12.67Q87.04-8.51 87.04-6.94L87.04-6.94L87.04-6.94Q87.04-5.38 87.90-4.48L87.90-4.48L87.90-4.48Q88.77-3.58 90.05-3.46L90.05-3.46L90.05-3.46Q89.41-1.28 87.20 0L87.20 0L87.20 0Q84.99 1.28 82.11 1.28ZM114.30-22.46L114.30-22.46L114.30-22.46Q115.20-24.83 115.20-26.88L115.20-26.88L115.20-26.88Q115.20-30.66 112.13-30.66L112.13-30.66L112.13-30.66Q110.53-30.66 109.22-29.22L109.22-29.22L109.22-29.22Q107.90-27.78 107.90-25.98L107.90-25.98L107.90-25.98Q107.90-24.70 108.93-23.68L108.93-23.68L108.93-23.68Q110.40-22.27 114.18-19.97L114.18-19.97L114.18-19.97Q117.95-17.66 119.39-15.78L119.39-15.78L119.39-15.78Q120.83-13.89 120.83-11.30L120.83-11.30L120.83-11.30Q120.83-8.70 119.58-6.34L119.58-6.34L119.58-6.34Q118.34-3.97 116.10-2.30L116.10-2.30L116.10-2.30Q111.30 1.28 103.62 1.28L103.62 1.28L103.62 1.28Q99.46 1.28 96.26-0.90L96.26-0.90L96.26-0.90Q93.06-3.01 93.06-5.50L93.06-5.50L93.06-5.50Q93.06-8 94.88-9.47L94.88-9.47L94.88-9.47Q96.70-10.94 99.39-10.94L99.39-10.94L99.39-10.94Q102.08-10.94 103.74-9.92L103.74-9.92L103.74-9.92Q102.91-7.81 102.91-6.40L102.91-6.40L102.91-6.40Q102.91-2.18 106.50-2.18L106.50-2.18L106.50-2.18Q108.03-2.18 109.06-3.14L109.06-3.14L109.06-3.14Q110.08-4.10 110.08-5.76L110.08-5.76L110.08-5.76Q110.08-9.02 104.58-12.48L104.58-12.48L104.58-12.48Q100.10-15.42 99.07-16.58L99.07-16.58L99.07-16.58Q97.34-18.62 97.34-21.18L97.34-21.18L97.34-21.18Q97.34-23.74 98.56-26.18L98.56-26.18L98.56-26.18Q99.78-28.61 102.02-30.34L102.02-30.34L102.02-30.34Q106.69-33.92 114.82-33.92L114.82-33.92L114.82-33.92Q118.98-33.92 121.44-32.26L121.44-32.26L121.44-32.26Q123.90-30.59 123.90-27.78L123.90-27.78L123.90-27.78Q123.90-24.96 122.21-23.36L122.21-23.36L122.21-23.36Q120.51-21.76 117.44-21.76L117.44-21.76L117.44-21.76Q115.33-21.76 114.30-22.46ZM129.06-1.92L129.06-1.92L129.06-1.92Q127.55-3.58 126.88-6.21L126.88-6.21L126.88-6.21Q126.21-8.83 126.21-13.12L126.21-13.12L126.21-13.12Q126.21-17.41 127.68-21.31L127.68-21.31L127.68-21.31Q129.15-25.22 131.84-28.03L131.84-28.03L131.84-28.03Q137.34-33.92 146.43-33.92L146.43-33.92L146.43-33.92Q149.70-33.92 152.06-32.83L152.06-32.83L163.01-33.92L158.27-8.96L158.27-8.96Q158.08-8.19 158.08-6.78L158.08-6.78L158.08-6.78Q158.08-5.38 158.94-4.48L158.94-4.48L158.94-4.48Q159.81-3.58 161.09-3.46L161.09-3.46L161.09-3.46Q160.45-1.28 158.11 0L158.11 0L158.11 0Q155.78 1.28 153.15 1.28L153.15 1.28L153.15 1.28Q150.53 1.28 148.77 0.29L148.77 0.29L148.77 0.29Q147.01-0.70 146.50-2.37L146.50-2.37L146.50-2.37Q145.47-0.77 143.30 0.26L143.30 0.26L143.30 0.26Q141.12 1.28 138.21 1.28L138.21 1.28L138.21 1.28Q135.30 1.28 132.93 0.51L132.93 0.51L132.93 0.51Q130.56-0.26 129.06-1.92ZM142.56-27.90L142.56-27.90L142.56-27.90Q141.82-26.75 141.18-24.80L141.18-24.80L141.18-24.80Q140.54-22.85 139.49-17.63L139.49-17.63L139.49-17.63Q138.43-12.42 138.43-8.70L138.43-8.70L138.43-8.70Q138.43-4.99 139.01-3.90L139.01-3.90L139.01-3.90Q139.58-2.82 140.61-2.82L140.61-2.82L140.61-2.82Q142.66-2.82 144.16-4.77L144.16-4.77L144.16-4.77Q145.66-6.72 146.24-10.18L146.24-10.18L149.63-28.93L149.63-28.93Q148.29-30.08 146.72-30.08L146.72-30.08L146.72-30.08Q145.15-30.08 144.22-29.57L144.22-29.57L144.22-29.57Q143.30-29.06 142.56-27.90ZM192.13-10.82L192.13-10.82L192.13-10.82Q193.73-9.73 193.73-7.33L193.73-7.33L193.73-7.33Q193.73-4.93 192.51-3.39L192.51-3.39L192.51-3.39Q191.30-1.86 189.31-0.83L189.31-0.83L189.31-0.83Q185.22 1.28 180.80 1.28L180.80 1.28L180.80 1.28Q176.38 1.28 173.79 0.32L173.79 0.32L173.79 0.32Q171.20-0.64 169.47-2.43L169.47-2.43L169.47-2.43Q166.08-5.82 166.08-12.03L166.08-12.03L166.08-12.03Q166.08-21.70 171.33-27.58L171.33-27.58L171.33-27.58Q176.96-33.92 186.75-33.92L186.75-33.92L186.75-33.92Q192.83-33.92 195.84-31.36L195.84-31.36L195.84-31.36Q198.08-29.44 198.08-26.30L198.08-26.30L198.08-26.30Q198.08-15.04 178.62-15.04L178.62-15.04L178.62-15.04Q178.37-13.38 178.37-11.97L178.37-11.97L178.37-11.97Q178.37-9.02 179.68-7.90L179.68-7.90L179.68-7.90Q180.99-6.78 183.42-6.78L183.42-6.78L183.42-6.78Q185.86-6.78 188.45-7.90L188.45-7.90L188.45-7.90Q191.04-9.02 192.13-10.82ZM179.07-17.79L179.07-17.79L179.07-17.79Q183.62-17.79 186.24-20.61L186.24-20.61L186.24-20.61Q188.86-23.30 188.86-27.58L188.86-27.58L188.86-27.58Q188.86-29.06 188.32-29.86L188.32-29.86L188.32-29.86Q187.78-30.66 186.69-30.66L186.69-30.66L186.69-30.66Q185.60-30.66 184.67-30.24L184.67-30.24L184.67-30.24Q183.74-29.82 182.78-28.42L182.78-28.42L182.78-28.42Q180.42-25.22 179.07-17.79ZM217.98-26.75L217.98-26.75L217.98-26.75Q220.16-29.82 223.46-31.87L223.46-31.87L223.46-31.87Q226.75-33.92 230.78-33.92L230.78-33.92L230.78-33.92Q234.82-33.92 236.74-32.64L236.74-32.64L249.28-33.92L244.93-9.34L244.93-9.34Q242.69 3.20 237.95 8.13L237.95 8.13L237.95 8.13Q233.41 12.80 224.58 12.80L224.58 12.80L224.58 12.80Q217.86 12.80 214.02 10.69L214.02 10.69L214.02 10.69Q210.18 8.58 210.18 5.06L210.18 5.06L210.18 5.06Q210.18 2.43 212.16 0.93L212.16 0.93L212.16 0.93Q214.14-0.58 217.22-0.58L217.22-0.58L217.22-0.58Q219.90-0.58 221.95 0.64L221.95 0.64L221.95 0.64Q223.17 1.28 223.74 2.18L223.74 2.18L223.74 2.18Q222.27 3.46 222.27 5.57L222.27 5.57L222.27 5.57Q222.27 8.32 224.83 8.32L224.83 8.32L224.83 8.32Q229.12 8.32 231.55-1.79L231.55-1.79L231.55-1.79Q232.26-4.54 232.83-7.30L232.83-7.30L232.83-7.30Q229.95-3.78 223.42-3.78L223.42-3.78L223.42-3.78Q218.88-3.78 216.26-5.95L216.26-5.95L216.26-5.95Q213.63-8.13 213.63-13.25L213.63-13.25L213.63-13.25Q213.63-16.45 214.72-20.06L214.72-20.06L214.72-20.06Q215.81-23.68 217.98-26.75ZM226.30-13.06L226.30-13.06L226.30-13.06Q226.30-8.70 228.54-8.70L228.54-8.70L228.54-8.70Q230.08-8.70 231.55-10.37L231.55-10.37L231.55-10.37Q232.70-11.71 233.15-13.70L233.15-13.70L236.42-30.14L236.42-30.14Q236.10-30.21 235.78-30.34L235.78-30.34L235.78-30.34Q235.14-30.59 234.30-30.59L234.30-30.59L234.30-30.59Q230.40-30.59 228.10-24.19L228.10-24.19L228.10-24.19Q226.30-19.20 226.30-13.06ZM277.70-10.82L277.70-10.82L277.70-10.82Q279.30-9.73 279.30-7.33L279.30-7.33L279.30-7.33Q279.30-4.93 278.08-3.39L278.08-3.39L278.08-3.39Q276.86-1.86 274.88-0.83L274.88-0.83L274.88-0.83Q270.78 1.28 266.37 1.28L266.37 1.28L266.37 1.28Q261.95 1.28 259.36 0.32L259.36 0.32L259.36 0.32Q256.77-0.64 255.04-2.43L255.04-2.43L255.04-2.43Q251.65-5.82 251.65-12.03L251.65-12.03L251.65-12.03Q251.65-21.70 256.90-27.58L256.90-27.58L256.90-27.58Q262.53-33.92 272.32-33.92L272.32-33.92L272.32-33.92Q278.40-33.92 281.41-31.36L281.41-31.36L281.41-31.36Q283.65-29.44 283.65-26.30L283.65-26.30L283.65-26.30Q283.65-15.04 264.19-15.04L264.19-15.04L264.19-15.04Q263.94-13.38 263.94-11.97L263.94-11.97L263.94-11.97Q263.94-9.02 265.25-7.90L265.25-7.90L265.25-7.90Q266.56-6.78 268.99-6.78L268.99-6.78L268.99-6.78Q271.42-6.78 274.02-7.90L274.02-7.90L274.02-7.90Q276.61-9.02 277.70-10.82ZM264.64-17.79L264.64-17.79L264.64-17.79Q269.18-17.79 271.81-20.61L271.81-20.61L271.81-20.61Q274.43-23.30 274.43-27.58L274.43-27.58L274.43-27.58Q274.43-29.06 273.89-29.86L273.89-29.86L273.89-29.86Q273.34-30.66 272.26-30.66L272.26-30.66L272.26-30.66Q271.17-30.66 270.24-30.24L270.24-30.24L270.24-30.24Q269.31-29.82 268.35-28.42L268.35-28.42L268.35-28.42Q265.98-25.22 264.64-17.79ZM284.99-3.07L284.99-3.07L292.93-44.80L305.92-46.08L303.94-36.29L303.94-36.29Q303.23-33.28 302.34-31.17L302.34-31.17L302.34-31.17Q303.74-32.96 306.82-33.66L306.82-33.66L306.82-33.66Q307.71-33.92 308.80-33.92L308.80-33.92L308.80-33.92Q314.75-33.92 318.02-30.30L318.02-30.30L318.02-30.30Q321.28-26.69 321.28-19.71L321.28-19.71L321.28-19.71Q321.28-10.62 316.10-4.93L316.10-4.93L316.10-4.93Q310.53 1.28 300.42 1.28L300.42 1.28L300.42 1.28Q293.44 1.28 288.19-1.02L288.19-1.02L288.19-1.02Q286.34-1.86 284.99-3.07ZM301.25-22.40L297.86-3.65L297.86-3.65Q299.20-2.50 300.86-2.50L300.86-2.50L300.86-2.50Q302.53-2.50 303.49-3.14L303.49-3.14L303.49-3.14Q304.45-3.78 305.15-5.06L305.15-5.06L305.15-5.06Q307.07-8.51 308.61-19.07L308.61-19.07L308.61-19.07Q309.06-22.08 309.06-25.09L309.06-25.09L309.06-25.09Q309.06-28.10 308.38-29.06L308.38-29.06L308.38-29.06Q307.71-30.02 306.43-30.02L306.43-30.02L306.43-30.02Q302.53-30.02 301.25-22.40L301.25-22.40ZM345.15-17.98L345.15-17.98L345.15-17.98Q347.46-22.08 347.46-26.24L347.46-26.24L347.46-26.24Q347.46-28.99 345.47-28.99L345.47-28.99L345.47-28.99Q343.94-28.99 342.34-26.37L342.34-26.37L342.34-26.37Q340.67-23.74 340.16-20.35L340.16-20.35L336.83 0L323.58 1.28L330.11-32.64L340.67-33.92L339.52-27.46L339.52-27.46Q342.66-33.92 349.70-33.92L349.70-33.92L349.70-33.92Q353.41-33.92 355.42-32L355.42-32L355.42-32Q357.44-30.08 357.44-26.14L357.44-26.14L357.44-26.14Q357.44-22.21 354.85-19.71L354.85-19.71L354.85-19.71Q352.26-17.22 347.84-17.22L347.84-17.22L347.84-17.22Q345.92-17.22 345.15-17.98ZM384.38-10.82L384.38-10.82L384.38-10.82Q385.98-9.73 385.98-7.33L385.98-7.33L385.98-7.33Q385.98-4.93 384.77-3.39L384.77-3.39L384.77-3.39Q383.55-1.86 381.57-0.83L381.57-0.83L381.57-0.83Q377.47 1.28 373.06 1.28L373.06 1.28L373.06 1.28Q368.64 1.28 366.05 0.32L366.05 0.32L366.05 0.32Q363.46-0.64 361.73-2.43L361.73-2.43L361.73-2.43Q358.34-5.82 358.34-12.03L358.34-12.03L358.34-12.03Q358.34-21.70 363.58-27.58L363.58-27.58L363.58-27.58Q369.22-33.92 379.01-33.92L379.01-33.92L379.01-33.92Q385.09-33.92 388.10-31.36L388.10-31.36L388.10-31.36Q390.34-29.44 390.34-26.30L390.34-26.30L390.34-26.30Q390.34-15.04 370.88-15.04L370.88-15.04L370.88-15.04Q370.62-13.38 370.62-11.97L370.62-11.97L370.62-11.97Q370.62-9.02 371.94-7.90L371.94-7.90L371.94-7.90Q373.25-6.78 375.68-6.78L375.68-6.78L375.68-6.78Q378.11-6.78 380.70-7.90L380.70-7.90L380.70-7.90Q383.30-9.02 384.38-10.82ZM371.33-17.79L371.33-17.79L371.33-17.79Q375.87-17.79 378.50-20.61L378.50-20.61L378.50-20.61Q381.12-23.30 381.12-27.58L381.12-27.58L381.12-27.58Q381.12-29.06 380.58-29.86L380.58-29.86L380.58-29.86Q380.03-30.66 378.94-30.66L378.94-30.66L378.94-30.66Q377.86-30.66 376.93-30.24L376.93-30.24L376.93-30.24Q376-29.82 375.04-28.42L375.04-28.42L375.04-28.42Q372.67-25.22 371.33-17.79ZM423.94-26.62L423.94-26.62L423.94-26.62Q423.94-23.94 421.70-22.27L421.70-22.27L421.70-22.27Q419.46-20.61 415.81-20.61L415.81-20.61L415.81-20.61Q414.27-20.61 413.38-21.06L413.38-21.06L413.38-21.06Q414.08-22.72 414.30-24.80L414.30-24.80L414.30-24.80Q414.53-26.88 414.53-27.46L414.53-27.46L414.53-27.46Q414.53-30.14 412.67-30.14L412.67-30.14L412.67-30.14Q411.39-30.14 409.95-28.54L409.95-28.54L409.95-28.54Q408.51-26.94 407.30-24.45L407.30-24.45L407.30-24.45Q404.61-18.69 404.61-12.86L404.61-12.86L404.61-12.86Q404.61-9.66 405.82-8.22L405.82-8.22L405.82-8.22Q407.04-6.78 409.73-6.78L409.73-6.78L409.73-6.78Q413.44-6.78 416.38-9.86L416.38-9.86L416.38-9.86Q417.22-10.82 417.66-11.90L417.66-11.90L417.66-11.90Q420.10-10.62 420.10-7.10L420.10-7.10L420.10-7.10Q420.10-3.52 416.13-1.15L416.13-1.15L416.13-1.15Q412.03 1.28 405.50 1.28L405.50 1.28L405.50 1.28Q392.51 1.28 392.51-12.48L392.51-12.48L392.51-12.48Q392.51-22.53 398.21-28.29L398.21-28.29L398.21-28.29Q403.71-33.92 413.82-33.92L413.82-33.92L413.82-33.92Q423.94-33.92 423.94-26.62ZM457.86-7.10L457.86-7.10L457.86-7.10Q457.86-4.29 460.74-3.46L460.74-3.46L460.74-3.46Q460.03-1.09 457.28 0.19L457.28 0.19L457.28 0.19Q454.98 1.28 452.45 1.28L452.45 1.28L452.45 1.28Q449.92 1.28 448.61 0.61L448.61 0.61L448.61 0.61Q447.30-0.06 446.59-1.15L446.59-1.15L446.59-1.15Q445.44-2.82 445.44-5.95L445.44-5.95L445.44-5.95Q445.44-7.81 446.46-12.93L446.46-12.93L447.36-17.79L447.36-17.79Q448.45-23.36 448.45-25.41L448.45-25.41L448.45-25.41Q448.45-28.99 446.46-28.99L446.46-28.99L446.46-28.99Q443.97-28.99 442.37-25.34L442.37-25.34L442.37-25.34Q441.73-23.94 441.28-21.82L441.28-21.82L436.93 0L424.06 1.28L433.09-44.80L445.95-46.08L445.44-43.52L445.44-43.52Q443.65-33.66 442.11-30.34L442.11-30.34L442.11-30.34Q445.70-33.92 452.29-33.92L452.29-33.92L452.29-33.92Q459.26-33.92 460.54-29.31L460.54-29.31L460.54-29.31Q460.99-27.84 460.99-26.56L460.99-26.56L460.99-26.56Q460.99-25.28 460.90-24.29L460.90-24.29L460.90-24.29Q460.80-23.30 460.48-21.50L460.48-21.50L459.65-16.90L458.18-9.66L458.18-9.66Q457.86-8.19 457.86-7.10ZM485.95-17.98L485.95-17.98L485.95-17.98Q488.26-22.08 488.26-26.24L488.26-26.24L488.26-26.24Q488.26-28.99 486.27-28.99L486.27-28.99L486.27-28.99Q484.74-28.99 483.14-26.37L483.14-26.37L483.14-26.37Q481.47-23.74 480.96-20.35L480.96-20.35L477.63 0L464.38 1.28L470.91-32.64L481.47-33.92L480.32-27.46L480.32-27.46Q483.46-33.92 490.50-33.92L490.50-33.92L490.50-33.92Q494.21-33.92 496.22-32L496.22-32L496.22-32Q498.24-30.08 498.24-26.14L498.24-26.14L498.24-26.14Q498.24-22.21 495.65-19.71L495.65-19.71L495.65-19.71Q493.06-17.22 488.64-17.22L488.64-17.22L488.64-17.22Q486.72-17.22 485.95-17.98ZM514.62-3.52L514.62-3.52L514.62-3.52Q512.64 1.28 506.30 1.28L506.30 1.28L506.30 1.28Q503.04 1.28 500.99-0.96L500.99-0.96L500.99-0.96Q499.26-2.94 499.26-4.93L499.26-4.93L499.26-4.93Q499.26-10.11 501.63-20.22L501.63-20.22L504-32.64L516.99-33.92L513.09-13.70L513.09-13.70Q512-8.96 512-7.30L512-7.30L512-7.30Q512-3.65 514.62-3.52ZM505.15-41.54L505.15-41.54L505.15-41.54Q505.15-44.03 507.23-45.38L507.23-45.38L507.23-45.38Q509.31-46.72 512.32-46.72L512.32-46.72L512.32-46.72Q515.33-46.72 517.15-45.38L517.15-45.38L517.15-45.38Q518.98-44.03 518.98-41.54L518.98-41.54L518.98-41.54Q518.98-39.04 516.96-37.76L516.96-37.76L516.96-37.76Q514.94-36.48 511.94-36.48L511.94-36.48L511.94-36.48Q508.93-36.48 507.04-37.76L507.04-37.76L507.04-37.76Q505.15-39.04 505.15-41.54ZM539.20-22.46L539.20-22.46L539.20-22.46Q540.10-24.83 540.10-26.88L540.10-26.88L540.10-26.88Q540.10-30.66 537.02-30.66L537.02-30.66L537.02-30.66Q535.42-30.66 534.11-29.22L534.11-29.22L534.11-29.22Q532.80-27.78 532.80-25.98L532.80-25.98L532.80-25.98Q532.80-24.70 533.82-23.68L533.82-23.68L533.82-23.68Q535.30-22.27 539.07-19.97L539.07-19.97L539.07-19.97Q542.85-17.66 544.29-15.78L544.29-15.78L544.29-15.78Q545.73-13.89 545.73-11.30L545.73-11.30L545.73-11.30Q545.73-8.70 544.48-6.34L544.48-6.34L544.48-6.34Q543.23-3.97 540.99-2.30L540.99-2.30L540.99-2.30Q536.19 1.28 528.51 1.28L528.51 1.28L528.51 1.28Q524.35 1.28 521.15-0.90L521.15-0.90L521.15-0.90Q517.95-3.01 517.95-5.50L517.95-5.50L517.95-5.50Q517.95-8 519.78-9.47L519.78-9.47L519.78-9.47Q521.60-10.94 524.29-10.94L524.29-10.94L524.29-10.94Q526.98-10.94 528.64-9.92L528.64-9.92L528.64-9.92Q527.81-7.81 527.81-6.40L527.81-6.40L527.81-6.40Q527.81-2.18 531.39-2.18L531.39-2.18L531.39-2.18Q532.93-2.18 533.95-3.14L533.95-3.14L533.95-3.14Q534.98-4.10 534.98-5.76L534.98-5.76L534.98-5.76Q534.98-9.02 529.47-12.48L529.47-12.48L529.47-12.48Q524.99-15.42 523.97-16.58L523.97-16.58L523.97-16.58Q522.24-18.62 522.24-21.18L522.24-21.18L522.24-21.18Q522.24-23.74 523.46-26.18L523.46-26.18L523.46-26.18Q524.67-28.61 526.91-30.34L526.91-30.34L526.91-30.34Q531.58-33.92 539.71-33.92L539.71-33.92L539.71-33.92Q543.87-33.92 546.34-32.26L546.34-32.26L546.34-32.26Q548.80-30.59 548.80-27.78L548.80-27.78L548.80-27.78Q548.80-24.96 547.10-23.36L547.10-23.36L547.10-23.36Q545.41-21.76 542.34-21.76L542.34-21.76L542.34-21.76Q540.22-21.76 539.20-22.46ZM552.19-6.40L552.19-6.40L552.19-6.40Q552.19-8.13 553.09-12.48L553.09-12.48L556.48-29.76L552.70-29.76L552.96-31.68L552.96-31.68Q560.64-33.98 568.06-39.62L568.06-39.62L571.14-39.62L569.60-32.64L574.59-32.64L574.02-29.76L569.09-29.76L565.82-12.48L565.82-12.48Q564.99-8.51 564.99-7.17L564.99-7.17L564.99-7.17Q564.99-4.10 567.68-3.46L567.68-3.46L567.68-3.46Q567.04-1.28 564.74 0L564.74 0L564.74 0Q562.43 1.28 559.17 1.28L559.17 1.28L559.17 1.28Q555.90 1.28 554.05-0.77L554.05-0.77L554.05-0.77Q552.19-2.82 552.19-6.40ZM587.97 1.28L587.97 1.28L587.97 1.28Q573.89 1.28 573.89-11.97L573.89-11.97L573.89-11.97Q573.89-21.38 579.07-27.46L579.07-27.46L579.07-27.46Q584.58-33.92 594.11-33.92L594.11-33.92L594.11-33.92Q601.02-33.92 604.54-30.72L604.54-30.72L604.54-30.72Q608.06-27.52 608.06-20.80L608.06-20.80L608.06-20.80Q608.06-10.56 602.56-4.61L602.56-4.61L602.56-4.61Q597.18 1.28 587.97 1.28ZM589.63-26.56L589.63-26.56L589.63-26.56Q588.86-24.83 588.26-22.24L588.26-22.24L588.26-22.24Q587.65-19.65 586.88-15.55L586.88-15.55L586.88-15.55Q586.11-11.46 586.11-6.40L586.11-6.40L586.11-6.40Q586.11-4.74 586.66-3.65L586.66-3.65L586.66-3.65Q587.20-2.56 588.67-2.56L588.67-2.56L588.67-2.56Q590.14-2.56 591.07-3.26L591.07-3.26L591.07-3.26Q592.00-3.97 592.70-5.63L592.70-5.63L592.70-5.63Q593.98-8.58 595.01-14.05L595.01-14.05L595.01-14.05Q596.03-19.52 596.13-21.89L596.13-21.89L596.13-21.89Q596.22-24.26 596.22-26.02L596.22-26.02L596.22-26.02Q596.22-27.78 595.71-28.93L595.71-28.93L595.71-28.93Q595.20-30.08 593.76-30.08L593.76-30.08L593.76-30.08Q592.32-30.08 591.36-29.18L591.36-29.18L591.36-29.18Q590.40-28.29 589.63-26.56ZM630.98-22.46L630.98-22.46L630.98-22.46Q631.87-24.83 631.87-26.88L631.87-26.88L631.87-26.88Q631.87-30.66 628.80-30.66L628.80-30.66L628.80-30.66Q627.20-30.66 625.89-29.22L625.89-29.22L625.89-29.22Q624.58-27.78 624.58-25.98L624.58-25.98L624.58-25.98Q624.58-24.70 625.60-23.68L625.60-23.68L625.60-23.68Q627.07-22.27 630.85-19.97L630.85-19.97L630.85-19.97Q634.62-17.66 636.06-15.78L636.06-15.78L636.06-15.78Q637.50-13.89 637.50-11.30L637.50-11.30L637.50-11.30Q637.50-8.70 636.26-6.34L636.26-6.34L636.26-6.34Q635.01-3.97 632.77-2.30L632.77-2.30L632.77-2.30Q627.97 1.28 620.29 1.28L620.29 1.28L620.29 1.28Q616.13 1.28 612.93-0.90L612.93-0.90L612.93-0.90Q609.73-3.01 609.73-5.50L609.73-5.50L609.73-5.50Q609.73-8 611.55-9.47L611.55-9.47L611.55-9.47Q613.38-10.94 616.06-10.94L616.06-10.94L616.06-10.94Q618.75-10.94 620.42-9.92L620.42-9.92L620.42-9.92Q619.58-7.81 619.58-6.40L619.58-6.40L619.58-6.40Q619.58-2.18 623.17-2.18L623.17-2.18L623.17-2.18Q624.70-2.18 625.73-3.14L625.73-3.14L625.73-3.14Q626.75-4.10 626.75-5.76L626.75-5.76L626.75-5.76Q626.75-9.02 621.25-12.48L621.25-12.48L621.25-12.48Q616.77-15.42 615.74-16.58L615.74-16.58L615.74-16.58Q614.02-18.62 614.02-21.18L614.02-21.18L614.02-21.18Q614.02-23.74 615.23-26.18L615.23-26.18L615.23-26.18Q616.45-28.61 618.69-30.34L618.69-30.34L618.69-30.34Q623.36-33.92 631.49-33.92L631.49-33.92L631.49-33.92Q635.65-33.92 638.11-32.26L638.11-32.26L638.11-32.26Q640.58-30.59 640.58-27.78L640.58-27.78L640.58-27.78Q640.58-24.96 638.88-23.36L638.88-23.36L638.88-23.36Q637.18-21.76 634.11-21.76L634.11-21.76L634.11-21.76Q632.00-21.76 630.98-22.46ZM697.66-26.56L697.66-26.56L697.66-26.56Q697.66 0.70 668.10 0.70L668.10 0.70L668.10 0.70Q663.36 0.70 655.55-0.45L655.55-0.45L662.72-38.27L662.72-38.27Q663.23-40.83 663.55-42.30L663.55-42.30L663.55-42.30Q673.28-43.01 677.60-43.01L677.60-43.01L677.60-43.01Q681.92-43.01 685.89-42.11L685.89-42.11L685.89-42.11Q689.86-41.22 692.48-39.23L692.48-39.23L692.48-39.23Q697.66-35.33 697.66-26.56ZM684.48-28.93L684.48-28.93L684.48-28.93Q684.48-38.46 677.63-38.46L677.63-38.46L676.99-38.46L676.99-38.46Q676.67-38.46 676.35-38.40L676.35-38.40L669.76-4.03L669.76-4.03Q670.02-3.90 670.27-3.90L670.27-3.90L670.78-3.90L670.78-3.90Q673.15-3.90 675.62-5.38L675.62-5.38L675.62-5.38Q678.08-6.85 680.00-9.86L680.00-9.86L680.00-9.86Q684.48-16.83 684.48-28.93ZM721.47-2.69L721.47-2.69L721.47-2.69Q718.40 1.28 710.78 1.28L710.78 1.28L710.78 1.28Q706.82 1.28 703.94-1.12L703.94-1.12L703.94-1.12Q701.06-3.52 701.06-6.98L701.06-6.98L701.06-6.98Q701.06-8.90 701.25-9.86L701.25-9.86L705.54-32.64L718.53-33.92L713.86-9.22L713.86-9.22Q713.60-7.81 713.60-6.98L713.60-6.98L713.60-6.98Q713.60-3.26 715.84-3.26L715.84-3.26L715.84-3.26Q718.34-3.26 720.13-6.66L720.13-6.66L720.13-6.66Q720.70-7.74 720.96-9.15L720.96-9.15L725.50-32.64L738.11-33.92L733.38-8.96L733.38-8.96Q733.18-8 733.18-6.98L733.18-6.98L733.18-6.98Q733.18-5.95 733.76-4.83L733.76-4.83L733.76-4.83Q734.34-3.71 736.19-3.46L736.19-3.46L736.19-3.46Q735.81-1.92 734.46-0.90L734.46-0.90L734.46-0.90Q731.65 1.28 728.61 1.28L728.61 1.28L728.61 1.28Q725.57 1.28 723.78 0.19L723.78 0.19L723.78 0.19Q721.98-0.90 721.47-2.69ZM756.86-3.52L756.86-3.52L756.86-3.52Q754.88 1.28 748.54 1.28L748.54 1.28L748.54 1.28Q745.34 1.28 743.30-0.96L743.30-0.96L743.30-0.96Q741.63-2.82 741.63-4.93L741.63-4.93L741.63-4.93Q741.63-9.73 743.87-20.22L743.87-20.22L748.54-44.80L761.54-46.08L755.33-13.70L755.33-13.70Q754.24-8.96 754.24-7.30L754.24-7.30L754.24-7.30Q754.24-3.65 756.86-3.52ZM788.22-10.82L788.22-10.82L788.22-10.82Q789.82-9.73 789.82-7.33L789.82-7.33L789.82-7.33Q789.82-4.93 788.61-3.39L788.61-3.39L788.61-3.39Q787.39-1.86 785.41-0.83L785.41-0.83L785.41-0.83Q781.31 1.28 776.90 1.28L776.90 1.28L776.90 1.28Q772.48 1.28 769.89 0.32L769.89 0.32L769.89 0.32Q767.30-0.64 765.57-2.43L765.57-2.43L765.57-2.43Q762.18-5.82 762.18-12.03L762.18-12.03L762.18-12.03Q762.18-21.70 767.42-27.58L767.42-27.58L767.42-27.58Q773.06-33.92 782.85-33.92L782.85-33.92L782.85-33.92Q788.93-33.92 791.94-31.36L791.94-31.36L791.94-31.36Q794.18-29.44 794.18-26.30L794.18-26.30L794.18-26.30Q794.18-15.04 774.72-15.04L774.72-15.04L774.72-15.04Q774.46-13.38 774.46-11.97L774.46-11.97L774.46-11.97Q774.46-9.02 775.78-7.90L775.78-7.90L775.78-7.90Q777.09-6.78 779.52-6.78L779.52-6.78L779.52-6.78Q781.95-6.78 784.54-7.90L784.54-7.90L784.54-7.90Q787.14-9.02 788.22-10.82ZM775.17-17.79L775.17-17.79L775.17-17.79Q779.71-17.79 782.34-20.61L782.34-20.61L782.34-20.61Q784.96-23.30 784.96-27.58L784.96-27.58L784.96-27.58Q784.96-29.06 784.42-29.86L784.42-29.86L784.42-29.86Q783.87-30.66 782.78-30.66L782.78-30.66L782.78-30.66Q781.70-30.66 780.77-30.24L780.77-30.24L780.77-30.24Q779.84-29.82 778.88-28.42L778.88-28.42L778.88-28.42Q776.51-25.22 775.17-17.79ZM827.78-26.62L827.78-26.62L827.78-26.62Q827.78-23.94 825.54-22.27L825.54-22.27L825.54-22.27Q823.30-20.61 819.65-20.61L819.65-20.61L819.65-20.61Q818.11-20.61 817.22-21.06L817.22-21.06L817.22-21.06Q817.92-22.72 818.14-24.80L818.14-24.80L818.14-24.80Q818.37-26.88 818.37-27.46L818.37-27.46L818.37-27.46Q818.37-30.14 816.51-30.14L816.51-30.14L816.51-30.14Q815.23-30.14 813.79-28.54L813.79-28.54L813.79-28.54Q812.35-26.94 811.14-24.45L811.14-24.45L811.14-24.45Q808.45-18.69 808.45-12.86L808.45-12.86L808.45-12.86Q808.45-9.66 809.66-8.22L809.66-8.22L809.66-8.22Q810.88-6.78 813.57-6.78L813.57-6.78L813.57-6.78Q817.28-6.78 820.22-9.86L820.22-9.86L820.22-9.86Q821.06-10.82 821.50-11.90L821.50-11.90L821.50-11.90Q823.94-10.62 823.94-7.10L823.94-7.10L823.94-7.10Q823.94-3.52 819.97-1.15L819.97-1.15L819.97-1.15Q815.87 1.28 809.34 1.28L809.34 1.28L809.34 1.28Q796.35 1.28 796.35-12.48L796.35-12.48L796.35-12.48Q796.35-22.53 802.05-28.29L802.05-28.29L802.05-28.29Q807.55-33.92 817.66-33.92L817.66-33.92L817.66-33.92Q827.78-33.92 827.78-26.62ZM861.70-7.10L861.70-7.10L861.70-7.10Q861.70-4.29 864.58-3.46L864.58-3.46L864.58-3.46Q863.87-1.09 861.12 0.19L861.12 0.19L861.12 0.19Q858.82 1.28 856.29 1.28L856.29 1.28L856.29 1.28Q853.76 1.28 852.45 0.61L852.45 0.61L852.45 0.61Q851.14-0.06 850.43-1.15L850.43-1.15L850.43-1.15Q849.28-2.82 849.28-5.95L849.28-5.95L849.28-5.95Q849.28-7.81 850.30-12.93L850.30-12.93L851.20-17.79L851.20-17.79Q852.29-23.36 852.29-25.41L852.29-25.41L852.29-25.41Q852.29-28.99 850.30-28.99L850.30-28.99L850.30-28.99Q847.81-28.99 846.21-25.34L846.21-25.34L846.21-25.34Q845.57-23.94 845.12-21.82L845.12-21.82L840.77 0L827.90 1.28L836.93-44.80L849.79-46.08L849.28-43.52L849.28-43.52Q847.49-33.66 845.95-30.34L845.95-30.34L845.95-30.34Q849.54-33.92 856.13-33.92L856.13-33.92L856.13-33.92Q863.10-33.92 864.38-29.31L864.38-29.31L864.38-29.31Q864.83-27.84 864.83-26.56L864.83-26.56L864.83-26.56Q864.83-25.28 864.74-24.29L864.74-24.29L864.74-24.29Q864.64-23.30 864.32-21.50L864.32-21.50L863.49-16.90L862.02-9.66L862.02-9.66Q861.70-8.19 861.70-7.10ZM872.54-1.92L872.54-1.92L872.54-1.92Q871.04-3.58 870.37-6.21L870.37-6.21L870.37-6.21Q869.70-8.83 869.70-13.12L869.70-13.12L869.70-13.12Q869.70-17.41 871.17-21.31L871.17-21.31L871.17-21.31Q872.64-25.22 875.33-28.03L875.33-28.03L875.33-28.03Q880.83-33.92 889.92-33.92L889.92-33.92L889.92-33.92Q893.18-33.92 895.55-32.83L895.55-32.83L906.50-33.92L901.76-8.96L901.76-8.96Q901.57-8.19 901.57-6.78L901.57-6.78L901.57-6.78Q901.57-5.38 902.43-4.48L902.43-4.48L902.43-4.48Q903.30-3.58 904.58-3.46L904.58-3.46L904.58-3.46Q903.94-1.28 901.60 0L901.60 0L901.60 0Q899.26 1.28 896.64 1.28L896.64 1.28L896.64 1.28Q894.02 1.28 892.26 0.29L892.26 0.29L892.26 0.29Q890.50-0.70 889.98-2.37L889.98-2.37L889.98-2.37Q888.96-0.77 886.78 0.26L886.78 0.26L886.78 0.26Q884.61 1.28 881.70 1.28L881.70 1.28L881.70 1.28Q878.78 1.28 876.42 0.51L876.42 0.51L876.42 0.51Q874.05-0.26 872.54-1.92ZM886.05-27.90L886.05-27.90L886.05-27.90Q885.31-26.75 884.67-24.80L884.67-24.80L884.67-24.80Q884.03-22.85 882.98-17.63L882.98-17.63L882.98-17.63Q881.92-12.42 881.92-8.70L881.92-8.70L881.92-8.70Q881.92-4.99 882.50-3.90L882.50-3.90L882.50-3.90Q883.07-2.82 884.10-2.82L884.10-2.82L884.10-2.82Q886.14-2.82 887.65-4.77L887.65-4.77L887.65-4.77Q889.15-6.72 889.73-10.18L889.73-10.18L893.12-28.93L893.12-28.93Q891.78-30.08 890.21-30.08L890.21-30.08L890.21-30.08Q888.64-30.08 887.71-29.57L887.71-29.57L887.71-29.57Q886.78-29.06 886.05-27.90Z" fill="url(#editing-shiny-gradient)"></path></g></g><g filter="url(#editing-shiny2)"><g transform="translate(-205.26498556137085, 104.76000022888184)"><path d="M6.21-31.17L6.21-31.17L6.21-31.17Q4.03-32.83 4.03-36.38L4.03-36.38L4.03-36.38Q4.03-39.94 6.37-41.79L6.37-41.79L6.37-41.79Q8.70-43.65 12.74-43.65L12.74-43.65L12.74-43.65Q15.30-43.65 21.38-42.75L21.38-42.75L25.73-42.11L25.73-42.11Q27.90-41.86 30.18-41.86L30.18-41.86L30.18-41.86Q32.45-41.86 33.98-42.82L33.98-42.82L33.98-42.82Q36.29-40.77 36.29-37.82L36.29-37.82L36.29-37.82Q36.29-34.88 33.66-32.77L33.66-32.77L33.66-32.77Q30.98-30.53 27.52-30.53L27.52-30.53L27.52-30.53Q25.86-30.53 23.17-30.98L23.17-30.98L23.17-30.98Q20.03-21.12 20.03-14.27L20.03-14.27L20.03-14.27Q20.03-7.42 23.49-3.84L23.49-3.84L23.49-3.84Q21.89-0.96 19.52 0.16L19.52 0.16L19.52 0.16Q17.15 1.28 13.60 1.28L13.60 1.28L13.60 1.28Q10.05 1.28 7.84-0.67L7.84-0.67L7.84-0.67Q5.63-2.62 5.63-6.66L5.63-6.66L5.63-6.66Q5.63-11.33 8.19-19.01L8.19-19.01L8.19-19.01Q10.75-26.62 14.59-32.45L14.59-32.45L14.59-32.45Q12.74-32.64 10.82-32.64L10.82-32.64L10.82-32.64Q6.85-32.64 6.21-31.17ZM49.60-3.52L49.60-3.52L49.60-3.52Q47.62 1.28 41.28 1.28L41.28 1.28L41.28 1.28Q38.02 1.28 35.97-0.96L35.97-0.96L35.97-0.96Q34.24-2.94 34.24-4.93L34.24-4.93L34.24-4.93Q34.24-10.11 36.61-20.22L36.61-20.22L38.98-32.64L51.97-33.92L48.06-13.70L48.06-13.70Q46.98-8.96 46.98-7.30L46.98-7.30L46.98-7.30Q46.98-3.65 49.60-3.52ZM40.13-41.54L40.13-41.54L40.13-41.54Q40.13-44.03 42.21-45.38L42.21-45.38L42.21-45.38Q44.29-46.72 47.30-46.72L47.30-46.72L47.30-46.72Q50.30-46.72 52.13-45.38L52.13-45.38L52.13-45.38Q53.95-44.03 53.95-41.54L53.95-41.54L53.95-41.54Q53.95-39.04 51.94-37.76L51.94-37.76L51.94-37.76Q49.92-36.48 46.91-36.48L46.91-36.48L46.91-36.48Q43.90-36.48 42.02-37.76L42.02-37.76L42.02-37.76Q40.13-39.04 40.13-41.54ZM82.11 1.28L82.11 1.28L82.11 1.28Q74.37 1.28 74.37-4.74L74.37-4.74L74.37-4.74Q74.43-6.40 74.94-9.22L74.94-9.22L76.10-15.10L76.10-15.10Q77.82-23.42 77.82-25.28L77.82-25.28L77.82-25.28Q77.82-28.99 75.65-28.99L75.65-28.99L75.65-28.99Q72-28.99 70.08-19.46L70.08-19.46L66.30 0L53.44 1.28L60.10-32.70L70.59-33.92L69.57-27.65L69.57-27.65Q72.58-33.92 81.79-33.92L81.79-33.92L81.79-33.92Q86.27-33.92 88.16-32.03L88.16-32.03L88.16-32.03Q90.05-30.14 90.05-25.92L90.05-25.92L90.05-25.92Q90.05-21.95 88-12.67L88-12.67L88-12.67Q87.04-8.51 87.04-6.94L87.04-6.94L87.04-6.94Q87.04-5.38 87.90-4.48L87.90-4.48L87.90-4.48Q88.77-3.58 90.05-3.46L90.05-3.46L90.05-3.46Q89.41-1.28 87.20 0L87.20 0L87.20 0Q84.99 1.28 82.11 1.28ZM114.30-22.46L114.30-22.46L114.30-22.46Q115.20-24.83 115.20-26.88L115.20-26.88L115.20-26.88Q115.20-30.66 112.13-30.66L112.13-30.66L112.13-30.66Q110.53-30.66 109.22-29.22L109.22-29.22L109.22-29.22Q107.90-27.78 107.90-25.98L107.90-25.98L107.90-25.98Q107.90-24.70 108.93-23.68L108.93-23.68L108.93-23.68Q110.40-22.27 114.18-19.97L114.18-19.97L114.18-19.97Q117.95-17.66 119.39-15.78L119.39-15.78L119.39-15.78Q120.83-13.89 120.83-11.30L120.83-11.30L120.83-11.30Q120.83-8.70 119.58-6.34L119.58-6.34L119.58-6.34Q118.34-3.97 116.10-2.30L116.10-2.30L116.10-2.30Q111.30 1.28 103.62 1.28L103.62 1.28L103.62 1.28Q99.46 1.28 96.26-0.90L96.26-0.90L96.26-0.90Q93.06-3.01 93.06-5.50L93.06-5.50L93.06-5.50Q93.06-8 94.88-9.47L94.88-9.47L94.88-9.47Q96.70-10.94 99.39-10.94L99.39-10.94L99.39-10.94Q102.08-10.94 103.74-9.92L103.74-9.92L103.74-9.92Q102.91-7.81 102.91-6.40L102.91-6.40L102.91-6.40Q102.91-2.18 106.50-2.18L106.50-2.18L106.50-2.18Q108.03-2.18 109.06-3.14L109.06-3.14L109.06-3.14Q110.08-4.10 110.08-5.76L110.08-5.76L110.08-5.76Q110.08-9.02 104.58-12.48L104.58-12.48L104.58-12.48Q100.10-15.42 99.07-16.58L99.07-16.58L99.07-16.58Q97.34-18.62 97.34-21.18L97.34-21.18L97.34-21.18Q97.34-23.74 98.56-26.18L98.56-26.18L98.56-26.18Q99.78-28.61 102.02-30.34L102.02-30.34L102.02-30.34Q106.69-33.92 114.82-33.92L114.82-33.92L114.82-33.92Q118.98-33.92 121.44-32.26L121.44-32.26L121.44-32.26Q123.90-30.59 123.90-27.78L123.90-27.78L123.90-27.78Q123.90-24.96 122.21-23.36L122.21-23.36L122.21-23.36Q120.51-21.76 117.44-21.76L117.44-21.76L117.44-21.76Q115.33-21.76 114.30-22.46ZM129.06-1.92L129.06-1.92L129.06-1.92Q127.55-3.58 126.88-6.21L126.88-6.21L126.88-6.21Q126.21-8.83 126.21-13.12L126.21-13.12L126.21-13.12Q126.21-17.41 127.68-21.31L127.68-21.31L127.68-21.31Q129.15-25.22 131.84-28.03L131.84-28.03L131.84-28.03Q137.34-33.92 146.43-33.92L146.43-33.92L146.43-33.92Q149.70-33.92 152.06-32.83L152.06-32.83L163.01-33.92L158.27-8.96L158.27-8.96Q158.08-8.19 158.08-6.78L158.08-6.78L158.08-6.78Q158.08-5.38 158.94-4.48L158.94-4.48L158.94-4.48Q159.81-3.58 161.09-3.46L161.09-3.46L161.09-3.46Q160.45-1.28 158.11 0L158.11 0L158.11 0Q155.78 1.28 153.15 1.28L153.15 1.28L153.15 1.28Q150.53 1.28 148.77 0.29L148.77 0.29L148.77 0.29Q147.01-0.70 146.50-2.37L146.50-2.37L146.50-2.37Q145.47-0.77 143.30 0.26L143.30 0.26L143.30 0.26Q141.12 1.28 138.21 1.28L138.21 1.28L138.21 1.28Q135.30 1.28 132.93 0.51L132.93 0.51L132.93 0.51Q130.56-0.26 129.06-1.92ZM142.56-27.90L142.56-27.90L142.56-27.90Q141.82-26.75 141.18-24.80L141.18-24.80L141.18-24.80Q140.54-22.85 139.49-17.63L139.49-17.63L139.49-17.63Q138.43-12.42 138.43-8.70L138.43-8.70L138.43-8.70Q138.43-4.99 139.01-3.90L139.01-3.90L139.01-3.90Q139.58-2.82 140.61-2.82L140.61-2.82L140.61-2.82Q142.66-2.82 144.16-4.77L144.16-4.77L144.16-4.77Q145.66-6.72 146.24-10.18L146.24-10.18L149.63-28.93L149.63-28.93Q148.29-30.08 146.72-30.08L146.72-30.08L146.72-30.08Q145.15-30.08 144.22-29.57L144.22-29.57L144.22-29.57Q143.30-29.06 142.56-27.90ZM192.13-10.82L192.13-10.82L192.13-10.82Q193.73-9.73 193.73-7.33L193.73-7.33L193.73-7.33Q193.73-4.93 192.51-3.39L192.51-3.39L192.51-3.39Q191.30-1.86 189.31-0.83L189.31-0.83L189.31-0.83Q185.22 1.28 180.80 1.28L180.80 1.28L180.80 1.28Q176.38 1.28 173.79 0.32L173.79 0.32L173.79 0.32Q171.20-0.64 169.47-2.43L169.47-2.43L169.47-2.43Q166.08-5.82 166.08-12.03L166.08-12.03L166.08-12.03Q166.08-21.70 171.33-27.58L171.33-27.58L171.33-27.58Q176.96-33.92 186.75-33.92L186.75-33.92L186.75-33.92Q192.83-33.92 195.84-31.36L195.84-31.36L195.84-31.36Q198.08-29.44 198.08-26.30L198.08-26.30L198.08-26.30Q198.08-15.04 178.62-15.04L178.62-15.04L178.62-15.04Q178.37-13.38 178.37-11.97L178.37-11.97L178.37-11.97Q178.37-9.02 179.68-7.90L179.68-7.90L179.68-7.90Q180.99-6.78 183.42-6.78L183.42-6.78L183.42-6.78Q185.86-6.78 188.45-7.90L188.45-7.90L188.45-7.90Q191.04-9.02 192.13-10.82ZM179.07-17.79L179.07-17.79L179.07-17.79Q183.62-17.79 186.24-20.61L186.24-20.61L186.24-20.61Q188.86-23.30 188.86-27.58L188.86-27.58L188.86-27.58Q188.86-29.06 188.32-29.86L188.32-29.86L188.32-29.86Q187.78-30.66 186.69-30.66L186.69-30.66L186.69-30.66Q185.60-30.66 184.67-30.24L184.67-30.24L184.67-30.24Q183.74-29.82 182.78-28.42L182.78-28.42L182.78-28.42Q180.42-25.22 179.07-17.79ZM217.98-26.75L217.98-26.75L217.98-26.75Q220.16-29.82 223.46-31.87L223.46-31.87L223.46-31.87Q226.75-33.92 230.78-33.92L230.78-33.92L230.78-33.92Q234.82-33.92 236.74-32.64L236.74-32.64L249.28-33.92L244.93-9.34L244.93-9.34Q242.69 3.20 237.95 8.13L237.95 8.13L237.95 8.13Q233.41 12.80 224.58 12.80L224.58 12.80L224.58 12.80Q217.86 12.80 214.02 10.69L214.02 10.69L214.02 10.69Q210.18 8.58 210.18 5.06L210.18 5.06L210.18 5.06Q210.18 2.43 212.16 0.93L212.16 0.93L212.16 0.93Q214.14-0.58 217.22-0.58L217.22-0.58L217.22-0.58Q219.90-0.58 221.95 0.64L221.95 0.64L221.95 0.64Q223.17 1.28 223.74 2.18L223.74 2.18L223.74 2.18Q222.27 3.46 222.27 5.57L222.27 5.57L222.27 5.57Q222.27 8.32 224.83 8.32L224.83 8.32L224.83 8.32Q229.12 8.32 231.55-1.79L231.55-1.79L231.55-1.79Q232.26-4.54 232.83-7.30L232.83-7.30L232.83-7.30Q229.95-3.78 223.42-3.78L223.42-3.78L223.42-3.78Q218.88-3.78 216.26-5.95L216.26-5.95L216.26-5.95Q213.63-8.13 213.63-13.25L213.63-13.25L213.63-13.25Q213.63-16.45 214.72-20.06L214.72-20.06L214.72-20.06Q215.81-23.68 217.98-26.75ZM226.30-13.06L226.30-13.06L226.30-13.06Q226.30-8.70 228.54-8.70L228.54-8.70L228.54-8.70Q230.08-8.70 231.55-10.37L231.55-10.37L231.55-10.37Q232.70-11.71 233.15-13.70L233.15-13.70L236.42-30.14L236.42-30.14Q236.10-30.21 235.78-30.34L235.78-30.34L235.78-30.34Q235.14-30.59 234.30-30.59L234.30-30.59L234.30-30.59Q230.40-30.59 228.10-24.19L228.10-24.19L228.10-24.19Q226.30-19.20 226.30-13.06ZM277.70-10.82L277.70-10.82L277.70-10.82Q279.30-9.73 279.30-7.33L279.30-7.33L279.30-7.33Q279.30-4.93 278.08-3.39L278.08-3.39L278.08-3.39Q276.86-1.86 274.88-0.83L274.88-0.83L274.88-0.83Q270.78 1.28 266.37 1.28L266.37 1.28L266.37 1.28Q261.95 1.28 259.36 0.32L259.36 0.32L259.36 0.32Q256.77-0.64 255.04-2.43L255.04-2.43L255.04-2.43Q251.65-5.82 251.65-12.03L251.65-12.03L251.65-12.03Q251.65-21.70 256.90-27.58L256.90-27.58L256.90-27.58Q262.53-33.92 272.32-33.92L272.32-33.92L272.32-33.92Q278.40-33.92 281.41-31.36L281.41-31.36L281.41-31.36Q283.65-29.44 283.65-26.30L283.65-26.30L283.65-26.30Q283.65-15.04 264.19-15.04L264.19-15.04L264.19-15.04Q263.94-13.38 263.94-11.97L263.94-11.97L263.94-11.97Q263.94-9.02 265.25-7.90L265.25-7.90L265.25-7.90Q266.56-6.78 268.99-6.78L268.99-6.78L268.99-6.78Q271.42-6.78 274.02-7.90L274.02-7.90L274.02-7.90Q276.61-9.02 277.70-10.82ZM264.64-17.79L264.64-17.79L264.64-17.79Q269.18-17.79 271.81-20.61L271.81-20.61L271.81-20.61Q274.43-23.30 274.43-27.58L274.43-27.58L274.43-27.58Q274.43-29.06 273.89-29.86L273.89-29.86L273.89-29.86Q273.34-30.66 272.26-30.66L272.26-30.66L272.26-30.66Q271.17-30.66 270.24-30.24L270.24-30.24L270.24-30.24Q269.31-29.82 268.35-28.42L268.35-28.42L268.35-28.42Q265.98-25.22 264.64-17.79ZM284.99-3.07L284.99-3.07L292.93-44.80L305.92-46.08L303.94-36.29L303.94-36.29Q303.23-33.28 302.34-31.17L302.34-31.17L302.34-31.17Q303.74-32.96 306.82-33.66L306.82-33.66L306.82-33.66Q307.71-33.92 308.80-33.92L308.80-33.92L308.80-33.92Q314.75-33.92 318.02-30.30L318.02-30.30L318.02-30.30Q321.28-26.69 321.28-19.71L321.28-19.71L321.28-19.71Q321.28-10.62 316.10-4.93L316.10-4.93L316.10-4.93Q310.53 1.28 300.42 1.28L300.42 1.28L300.42 1.28Q293.44 1.28 288.19-1.02L288.19-1.02L288.19-1.02Q286.34-1.86 284.99-3.07ZM301.25-22.40L297.86-3.65L297.86-3.65Q299.20-2.50 300.86-2.50L300.86-2.50L300.86-2.50Q302.53-2.50 303.49-3.14L303.49-3.14L303.49-3.14Q304.45-3.78 305.15-5.06L305.15-5.06L305.15-5.06Q307.07-8.51 308.61-19.07L308.61-19.07L308.61-19.07Q309.06-22.08 309.06-25.09L309.06-25.09L309.06-25.09Q309.06-28.10 308.38-29.06L308.38-29.06L308.38-29.06Q307.71-30.02 306.43-30.02L306.43-30.02L306.43-30.02Q302.53-30.02 301.25-22.40L301.25-22.40ZM345.15-17.98L345.15-17.98L345.15-17.98Q347.46-22.08 347.46-26.24L347.46-26.24L347.46-26.24Q347.46-28.99 345.47-28.99L345.47-28.99L345.47-28.99Q343.94-28.99 342.34-26.37L342.34-26.37L342.34-26.37Q340.67-23.74 340.16-20.35L340.16-20.35L336.83 0L323.58 1.28L330.11-32.64L340.67-33.92L339.52-27.46L339.52-27.46Q342.66-33.92 349.70-33.92L349.70-33.92L349.70-33.92Q353.41-33.92 355.42-32L355.42-32L355.42-32Q357.44-30.08 357.44-26.14L357.44-26.14L357.44-26.14Q357.44-22.21 354.85-19.71L354.85-19.71L354.85-19.71Q352.26-17.22 347.84-17.22L347.84-17.22L347.84-17.22Q345.92-17.22 345.15-17.98ZM384.38-10.82L384.38-10.82L384.38-10.82Q385.98-9.73 385.98-7.33L385.98-7.33L385.98-7.33Q385.98-4.93 384.77-3.39L384.77-3.39L384.77-3.39Q383.55-1.86 381.57-0.83L381.57-0.83L381.57-0.83Q377.47 1.28 373.06 1.28L373.06 1.28L373.06 1.28Q368.64 1.28 366.05 0.32L366.05 0.32L366.05 0.32Q363.46-0.64 361.73-2.43L361.73-2.43L361.73-2.43Q358.34-5.82 358.34-12.03L358.34-12.03L358.34-12.03Q358.34-21.70 363.58-27.58L363.58-27.58L363.58-27.58Q369.22-33.92 379.01-33.92L379.01-33.92L379.01-33.92Q385.09-33.92 388.10-31.36L388.10-31.36L388.10-31.36Q390.34-29.44 390.34-26.30L390.34-26.30L390.34-26.30Q390.34-15.04 370.88-15.04L370.88-15.04L370.88-15.04Q370.62-13.38 370.62-11.97L370.62-11.97L370.62-11.97Q370.62-9.02 371.94-7.90L371.94-7.90L371.94-7.90Q373.25-6.78 375.68-6.78L375.68-6.78L375.68-6.78Q378.11-6.78 380.70-7.90L380.70-7.90L380.70-7.90Q383.30-9.02 384.38-10.82ZM371.33-17.79L371.33-17.79L371.33-17.79Q375.87-17.79 378.50-20.61L378.50-20.61L378.50-20.61Q381.12-23.30 381.12-27.58L381.12-27.58L381.12-27.58Q381.12-29.06 380.58-29.86L380.58-29.86L380.58-29.86Q380.03-30.66 378.94-30.66L378.94-30.66L378.94-30.66Q377.86-30.66 376.93-30.24L376.93-30.24L376.93-30.24Q376-29.82 375.04-28.42L375.04-28.42L375.04-28.42Q372.67-25.22 371.33-17.79ZM423.94-26.62L423.94-26.62L423.94-26.62Q423.94-23.94 421.70-22.27L421.70-22.27L421.70-22.27Q419.46-20.61 415.81-20.61L415.81-20.61L415.81-20.61Q414.27-20.61 413.38-21.06L413.38-21.06L413.38-21.06Q414.08-22.72 414.30-24.80L414.30-24.80L414.30-24.80Q414.53-26.88 414.53-27.46L414.53-27.46L414.53-27.46Q414.53-30.14 412.67-30.14L412.67-30.14L412.67-30.14Q411.39-30.14 409.95-28.54L409.95-28.54L409.95-28.54Q408.51-26.94 407.30-24.45L407.30-24.45L407.30-24.45Q404.61-18.69 404.61-12.86L404.61-12.86L404.61-12.86Q404.61-9.66 405.82-8.22L405.82-8.22L405.82-8.22Q407.04-6.78 409.73-6.78L409.73-6.78L409.73-6.78Q413.44-6.78 416.38-9.86L416.38-9.86L416.38-9.86Q417.22-10.82 417.66-11.90L417.66-11.90L417.66-11.90Q420.10-10.62 420.10-7.10L420.10-7.10L420.10-7.10Q420.10-3.52 416.13-1.15L416.13-1.15L416.13-1.15Q412.03 1.28 405.50 1.28L405.50 1.28L405.50 1.28Q392.51 1.28 392.51-12.48L392.51-12.48L392.51-12.48Q392.51-22.53 398.21-28.29L398.21-28.29L398.21-28.29Q403.71-33.92 413.82-33.92L413.82-33.92L413.82-33.92Q423.94-33.92 423.94-26.62ZM457.86-7.10L457.86-7.10L457.86-7.10Q457.86-4.29 460.74-3.46L460.74-3.46L460.74-3.46Q460.03-1.09 457.28 0.19L457.28 0.19L457.28 0.19Q454.98 1.28 452.45 1.28L452.45 1.28L452.45 1.28Q449.92 1.28 448.61 0.61L448.61 0.61L448.61 0.61Q447.30-0.06 446.59-1.15L446.59-1.15L446.59-1.15Q445.44-2.82 445.44-5.95L445.44-5.95L445.44-5.95Q445.44-7.81 446.46-12.93L446.46-12.93L447.36-17.79L447.36-17.79Q448.45-23.36 448.45-25.41L448.45-25.41L448.45-25.41Q448.45-28.99 446.46-28.99L446.46-28.99L446.46-28.99Q443.97-28.99 442.37-25.34L442.37-25.34L442.37-25.34Q441.73-23.94 441.28-21.82L441.28-21.82L436.93 0L424.06 1.28L433.09-44.80L445.95-46.08L445.44-43.52L445.44-43.52Q443.65-33.66 442.11-30.34L442.11-30.34L442.11-30.34Q445.70-33.92 452.29-33.92L452.29-33.92L452.29-33.92Q459.26-33.92 460.54-29.31L460.54-29.31L460.54-29.31Q460.99-27.84 460.99-26.56L460.99-26.56L460.99-26.56Q460.99-25.28 460.90-24.29L460.90-24.29L460.90-24.29Q460.80-23.30 460.48-21.50L460.48-21.50L459.65-16.90L458.18-9.66L458.18-9.66Q457.86-8.19 457.86-7.10ZM485.95-17.98L485.95-17.98L485.95-17.98Q488.26-22.08 488.26-26.24L488.26-26.24L488.26-26.24Q488.26-28.99 486.27-28.99L486.27-28.99L486.27-28.99Q484.74-28.99 483.14-26.37L483.14-26.37L483.14-26.37Q481.47-23.74 480.96-20.35L480.96-20.35L477.63 0L464.38 1.28L470.91-32.64L481.47-33.92L480.32-27.46L480.32-27.46Q483.46-33.92 490.50-33.92L490.50-33.92L490.50-33.92Q494.21-33.92 496.22-32L496.22-32L496.22-32Q498.24-30.08 498.24-26.14L498.24-26.14L498.24-26.14Q498.24-22.21 495.65-19.71L495.65-19.71L495.65-19.71Q493.06-17.22 488.64-17.22L488.64-17.22L488.64-17.22Q486.72-17.22 485.95-17.98ZM514.62-3.52L514.62-3.52L514.62-3.52Q512.64 1.28 506.30 1.28L506.30 1.28L506.30 1.28Q503.04 1.28 500.99-0.96L500.99-0.96L500.99-0.96Q499.26-2.94 499.26-4.93L499.26-4.93L499.26-4.93Q499.26-10.11 501.63-20.22L501.63-20.22L504-32.64L516.99-33.92L513.09-13.70L513.09-13.70Q512-8.96 512-7.30L512-7.30L512-7.30Q512-3.65 514.62-3.52ZM505.15-41.54L505.15-41.54L505.15-41.54Q505.15-44.03 507.23-45.38L507.23-45.38L507.23-45.38Q509.31-46.72 512.32-46.72L512.32-46.72L512.32-46.72Q515.33-46.72 517.15-45.38L517.15-45.38L517.15-45.38Q518.98-44.03 518.98-41.54L518.98-41.54L518.98-41.54Q518.98-39.04 516.96-37.76L516.96-37.76L516.96-37.76Q514.94-36.48 511.94-36.48L511.94-36.48L511.94-36.48Q508.93-36.48 507.04-37.76L507.04-37.76L507.04-37.76Q505.15-39.04 505.15-41.54ZM539.20-22.46L539.20-22.46L539.20-22.46Q540.10-24.83 540.10-26.88L540.10-26.88L540.10-26.88Q540.10-30.66 537.02-30.66L537.02-30.66L537.02-30.66Q535.42-30.66 534.11-29.22L534.11-29.22L534.11-29.22Q532.80-27.78 532.80-25.98L532.80-25.98L532.80-25.98Q532.80-24.70 533.82-23.68L533.82-23.68L533.82-23.68Q535.30-22.27 539.07-19.97L539.07-19.97L539.07-19.97Q542.85-17.66 544.29-15.78L544.29-15.78L544.29-15.78Q545.73-13.89 545.73-11.30L545.73-11.30L545.73-11.30Q545.73-8.70 544.48-6.34L544.48-6.34L544.48-6.34Q543.23-3.97 540.99-2.30L540.99-2.30L540.99-2.30Q536.19 1.28 528.51 1.28L528.51 1.28L528.51 1.28Q524.35 1.28 521.15-0.90L521.15-0.90L521.15-0.90Q517.95-3.01 517.95-5.50L517.95-5.50L517.95-5.50Q517.95-8 519.78-9.47L519.78-9.47L519.78-9.47Q521.60-10.94 524.29-10.94L524.29-10.94L524.29-10.94Q526.98-10.94 528.64-9.92L528.64-9.92L528.64-9.92Q527.81-7.81 527.81-6.40L527.81-6.40L527.81-6.40Q527.81-2.18 531.39-2.18L531.39-2.18L531.39-2.18Q532.93-2.18 533.95-3.14L533.95-3.14L533.95-3.14Q534.98-4.10 534.98-5.76L534.98-5.76L534.98-5.76Q534.98-9.02 529.47-12.48L529.47-12.48L529.47-12.48Q524.99-15.42 523.97-16.58L523.97-16.58L523.97-16.58Q522.24-18.62 522.24-21.18L522.24-21.18L522.24-21.18Q522.24-23.74 523.46-26.18L523.46-26.18L523.46-26.18Q524.67-28.61 526.91-30.34L526.91-30.34L526.91-30.34Q531.58-33.92 539.71-33.92L539.71-33.92L539.71-33.92Q543.87-33.92 546.34-32.26L546.34-32.26L546.34-32.26Q548.80-30.59 548.80-27.78L548.80-27.78L548.80-27.78Q548.80-24.96 547.10-23.36L547.10-23.36L547.10-23.36Q545.41-21.76 542.34-21.76L542.34-21.76L542.34-21.76Q540.22-21.76 539.20-22.46ZM552.19-6.40L552.19-6.40L552.19-6.40Q552.19-8.13 553.09-12.48L553.09-12.48L556.48-29.76L552.70-29.76L552.96-31.68L552.96-31.68Q560.64-33.98 568.06-39.62L568.06-39.62L571.14-39.62L569.60-32.64L574.59-32.64L574.02-29.76L569.09-29.76L565.82-12.48L565.82-12.48Q564.99-8.51 564.99-7.17L564.99-7.17L564.99-7.17Q564.99-4.10 567.68-3.46L567.68-3.46L567.68-3.46Q567.04-1.28 564.74 0L564.74 0L564.74 0Q562.43 1.28 559.17 1.28L559.17 1.28L559.17 1.28Q555.90 1.28 554.05-0.77L554.05-0.77L554.05-0.77Q552.19-2.82 552.19-6.40ZM587.97 1.28L587.97 1.28L587.97 1.28Q573.89 1.28 573.89-11.97L573.89-11.97L573.89-11.97Q573.89-21.38 579.07-27.46L579.07-27.46L579.07-27.46Q584.58-33.92 594.11-33.92L594.11-33.92L594.11-33.92Q601.02-33.92 604.54-30.72L604.54-30.72L604.54-30.72Q608.06-27.52 608.06-20.80L608.06-20.80L608.06-20.80Q608.06-10.56 602.56-4.61L602.56-4.61L602.56-4.61Q597.18 1.28 587.97 1.28ZM589.63-26.56L589.63-26.56L589.63-26.56Q588.86-24.83 588.26-22.24L588.26-22.24L588.26-22.24Q587.65-19.65 586.88-15.55L586.88-15.55L586.88-15.55Q586.11-11.46 586.11-6.40L586.11-6.40L586.11-6.40Q586.11-4.74 586.66-3.65L586.66-3.65L586.66-3.65Q587.20-2.56 588.67-2.56L588.67-2.56L588.67-2.56Q590.14-2.56 591.07-3.26L591.07-3.26L591.07-3.26Q592.00-3.97 592.70-5.63L592.70-5.63L592.70-5.63Q593.98-8.58 595.01-14.05L595.01-14.05L595.01-14.05Q596.03-19.52 596.13-21.89L596.13-21.89L596.13-21.89Q596.22-24.26 596.22-26.02L596.22-26.02L596.22-26.02Q596.22-27.78 595.71-28.93L595.71-28.93L595.71-28.93Q595.20-30.08 593.76-30.08L593.76-30.08L593.76-30.08Q592.32-30.08 591.36-29.18L591.36-29.18L591.36-29.18Q590.40-28.29 589.63-26.56ZM630.98-22.46L630.98-22.46L630.98-22.46Q631.87-24.83 631.87-26.88L631.87-26.88L631.87-26.88Q631.87-30.66 628.80-30.66L628.80-30.66L628.80-30.66Q627.20-30.66 625.89-29.22L625.89-29.22L625.89-29.22Q624.58-27.78 624.58-25.98L624.58-25.98L624.58-25.98Q624.58-24.70 625.60-23.68L625.60-23.68L625.60-23.68Q627.07-22.27 630.85-19.97L630.85-19.97L630.85-19.97Q634.62-17.66 636.06-15.78L636.06-15.78L636.06-15.78Q637.50-13.89 637.50-11.30L637.50-11.30L637.50-11.30Q637.50-8.70 636.26-6.34L636.26-6.34L636.26-6.34Q635.01-3.97 632.77-2.30L632.77-2.30L632.77-2.30Q627.97 1.28 620.29 1.28L620.29 1.28L620.29 1.28Q616.13 1.28 612.93-0.90L612.93-0.90L612.93-0.90Q609.73-3.01 609.73-5.50L609.73-5.50L609.73-5.50Q609.73-8 611.55-9.47L611.55-9.47L611.55-9.47Q613.38-10.94 616.06-10.94L616.06-10.94L616.06-10.94Q618.75-10.94 620.42-9.92L620.42-9.92L620.42-9.92Q619.58-7.81 619.58-6.40L619.58-6.40L619.58-6.40Q619.58-2.18 623.17-2.18L623.17-2.18L623.17-2.18Q624.70-2.18 625.73-3.14L625.73-3.14L625.73-3.14Q626.75-4.10 626.75-5.76L626.75-5.76L626.75-5.76Q626.75-9.02 621.25-12.48L621.25-12.48L621.25-12.48Q616.77-15.42 615.74-16.58L615.74-16.58L615.74-16.58Q614.02-18.62 614.02-21.18L614.02-21.18L614.02-21.18Q614.02-23.74 615.23-26.18L615.23-26.18L615.23-26.18Q616.45-28.61 618.69-30.34L618.69-30.34L618.69-30.34Q623.36-33.92 631.49-33.92L631.49-33.92L631.49-33.92Q635.65-33.92 638.11-32.26L638.11-32.26L638.11-32.26Q640.58-30.59 640.58-27.78L640.58-27.78L640.58-27.78Q640.58-24.96 638.88-23.36L638.88-23.36L638.88-23.36Q637.18-21.76 634.11-21.76L634.11-21.76L634.11-21.76Q632.00-21.76 630.98-22.46ZM697.66-26.56L697.66-26.56L697.66-26.56Q697.66 0.70 668.10 0.70L668.10 0.70L668.10 0.70Q663.36 0.70 655.55-0.45L655.55-0.45L662.72-38.27L662.72-38.27Q663.23-40.83 663.55-42.30L663.55-42.30L663.55-42.30Q673.28-43.01 677.60-43.01L677.60-43.01L677.60-43.01Q681.92-43.01 685.89-42.11L685.89-42.11L685.89-42.11Q689.86-41.22 692.48-39.23L692.48-39.23L692.48-39.23Q697.66-35.33 697.66-26.56ZM684.48-28.93L684.48-28.93L684.48-28.93Q684.48-38.46 677.63-38.46L677.63-38.46L676.99-38.46L676.99-38.46Q676.67-38.46 676.35-38.40L676.35-38.40L669.76-4.03L669.76-4.03Q670.02-3.90 670.27-3.90L670.27-3.90L670.78-3.90L670.78-3.90Q673.15-3.90 675.62-5.38L675.62-5.38L675.62-5.38Q678.08-6.85 680.00-9.86L680.00-9.86L680.00-9.86Q684.48-16.83 684.48-28.93ZM721.47-2.69L721.47-2.69L721.47-2.69Q718.40 1.28 710.78 1.28L710.78 1.28L710.78 1.28Q706.82 1.28 703.94-1.12L703.94-1.12L703.94-1.12Q701.06-3.52 701.06-6.98L701.06-6.98L701.06-6.98Q701.06-8.90 701.25-9.86L701.25-9.86L705.54-32.64L718.53-33.92L713.86-9.22L713.86-9.22Q713.60-7.81 713.60-6.98L713.60-6.98L713.60-6.98Q713.60-3.26 715.84-3.26L715.84-3.26L715.84-3.26Q718.34-3.26 720.13-6.66L720.13-6.66L720.13-6.66Q720.70-7.74 720.96-9.15L720.96-9.15L725.50-32.64L738.11-33.92L733.38-8.96L733.38-8.96Q733.18-8 733.18-6.98L733.18-6.98L733.18-6.98Q733.18-5.95 733.76-4.83L733.76-4.83L733.76-4.83Q734.34-3.71 736.19-3.46L736.19-3.46L736.19-3.46Q735.81-1.92 734.46-0.90L734.46-0.90L734.46-0.90Q731.65 1.28 728.61 1.28L728.61 1.28L728.61 1.28Q725.57 1.28 723.78 0.19L723.78 0.19L723.78 0.19Q721.98-0.90 721.47-2.69ZM756.86-3.52L756.86-3.52L756.86-3.52Q754.88 1.28 748.54 1.28L748.54 1.28L748.54 1.28Q745.34 1.28 743.30-0.96L743.30-0.96L743.30-0.96Q741.63-2.82 741.63-4.93L741.63-4.93L741.63-4.93Q741.63-9.73 743.87-20.22L743.87-20.22L748.54-44.80L761.54-46.08L755.33-13.70L755.33-13.70Q754.24-8.96 754.24-7.30L754.24-7.30L754.24-7.30Q754.24-3.65 756.86-3.52ZM788.22-10.82L788.22-10.82L788.22-10.82Q789.82-9.73 789.82-7.33L789.82-7.33L789.82-7.33Q789.82-4.93 788.61-3.39L788.61-3.39L788.61-3.39Q787.39-1.86 785.41-0.83L785.41-0.83L785.41-0.83Q781.31 1.28 776.90 1.28L776.90 1.28L776.90 1.28Q772.48 1.28 769.89 0.32L769.89 0.32L769.89 0.32Q767.30-0.64 765.57-2.43L765.57-2.43L765.57-2.43Q762.18-5.82 762.18-12.03L762.18-12.03L762.18-12.03Q762.18-21.70 767.42-27.58L767.42-27.58L767.42-27.58Q773.06-33.92 782.85-33.92L782.85-33.92L782.85-33.92Q788.93-33.92 791.94-31.36L791.94-31.36L791.94-31.36Q794.18-29.44 794.18-26.30L794.18-26.30L794.18-26.30Q794.18-15.04 774.72-15.04L774.72-15.04L774.72-15.04Q774.46-13.38 774.46-11.97L774.46-11.97L774.46-11.97Q774.46-9.02 775.78-7.90L775.78-7.90L775.78-7.90Q777.09-6.78 779.52-6.78L779.52-6.78L779.52-6.78Q781.95-6.78 784.54-7.90L784.54-7.90L784.54-7.90Q787.14-9.02 788.22-10.82ZM775.17-17.79L775.17-17.79L775.17-17.79Q779.71-17.79 782.34-20.61L782.34-20.61L782.34-20.61Q784.96-23.30 784.96-27.58L784.96-27.58L784.96-27.58Q784.96-29.06 784.42-29.86L784.42-29.86L784.42-29.86Q783.87-30.66 782.78-30.66L782.78-30.66L782.78-30.66Q781.70-30.66 780.77-30.24L780.77-30.24L780.77-30.24Q779.84-29.82 778.88-28.42L778.88-28.42L778.88-28.42Q776.51-25.22 775.17-17.79ZM827.78-26.62L827.78-26.62L827.78-26.62Q827.78-23.94 825.54-22.27L825.54-22.27L825.54-22.27Q823.30-20.61 819.65-20.61L819.65-20.61L819.65-20.61Q818.11-20.61 817.22-21.06L817.22-21.06L817.22-21.06Q817.92-22.72 818.14-24.80L818.14-24.80L818.14-24.80Q818.37-26.88 818.37-27.46L818.37-27.46L818.37-27.46Q818.37-30.14 816.51-30.14L816.51-30.14L816.51-30.14Q815.23-30.14 813.79-28.54L813.79-28.54L813.79-28.54Q812.35-26.94 811.14-24.45L811.14-24.45L811.14-24.45Q808.45-18.69 808.45-12.86L808.45-12.86L808.45-12.86Q808.45-9.66 809.66-8.22L809.66-8.22L809.66-8.22Q810.88-6.78 813.57-6.78L813.57-6.78L813.57-6.78Q817.28-6.78 820.22-9.86L820.22-9.86L820.22-9.86Q821.06-10.82 821.50-11.90L821.50-11.90L821.50-11.90Q823.94-10.62 823.94-7.10L823.94-7.10L823.94-7.10Q823.94-3.52 819.97-1.15L819.97-1.15L819.97-1.15Q815.87 1.28 809.34 1.28L809.34 1.28L809.34 1.28Q796.35 1.28 796.35-12.48L796.35-12.48L796.35-12.48Q796.35-22.53 802.05-28.29L802.05-28.29L802.05-28.29Q807.55-33.92 817.66-33.92L817.66-33.92L817.66-33.92Q827.78-33.92 827.78-26.62ZM861.70-7.10L861.70-7.10L861.70-7.10Q861.70-4.29 864.58-3.46L864.58-3.46L864.58-3.46Q863.87-1.09 861.12 0.19L861.12 0.19L861.12 0.19Q858.82 1.28 856.29 1.28L856.29 1.28L856.29 1.28Q853.76 1.28 852.45 0.61L852.45 0.61L852.45 0.61Q851.14-0.06 850.43-1.15L850.43-1.15L850.43-1.15Q849.28-2.82 849.28-5.95L849.28-5.95L849.28-5.95Q849.28-7.81 850.30-12.93L850.30-12.93L851.20-17.79L851.20-17.79Q852.29-23.36 852.29-25.41L852.29-25.41L852.29-25.41Q852.29-28.99 850.30-28.99L850.30-28.99L850.30-28.99Q847.81-28.99 846.21-25.34L846.21-25.34L846.21-25.34Q845.57-23.94 845.12-21.82L845.12-21.82L840.77 0L827.90 1.28L836.93-44.80L849.79-46.08L849.28-43.52L849.28-43.52Q847.49-33.66 845.95-30.34L845.95-30.34L845.95-30.34Q849.54-33.92 856.13-33.92L856.13-33.92L856.13-33.92Q863.10-33.92 864.38-29.31L864.38-29.31L864.38-29.31Q864.83-27.84 864.83-26.56L864.83-26.56L864.83-26.56Q864.83-25.28 864.74-24.29L864.74-24.29L864.74-24.29Q864.64-23.30 864.32-21.50L864.32-21.50L863.49-16.90L862.02-9.66L862.02-9.66Q861.70-8.19 861.70-7.10ZM872.54-1.92L872.54-1.92L872.54-1.92Q871.04-3.58 870.37-6.21L870.37-6.21L870.37-6.21Q869.70-8.83 869.70-13.12L869.70-13.12L869.70-13.12Q869.70-17.41 871.17-21.31L871.17-21.31L871.17-21.31Q872.64-25.22 875.33-28.03L875.33-28.03L875.33-28.03Q880.83-33.92 889.92-33.92L889.92-33.92L889.92-33.92Q893.18-33.92 895.55-32.83L895.55-32.83L906.50-33.92L901.76-8.96L901.76-8.96Q901.57-8.19 901.57-6.78L901.57-6.78L901.57-6.78Q901.57-5.38 902.43-4.48L902.43-4.48L902.43-4.48Q903.30-3.58 904.58-3.46L904.58-3.46L904.58-3.46Q903.94-1.28 901.60 0L901.60 0L901.60 0Q899.26 1.28 896.64 1.28L896.64 1.28L896.64 1.28Q894.02 1.28 892.26 0.29L892.26 0.29L892.26 0.29Q890.50-0.70 889.98-2.37L889.98-2.37L889.98-2.37Q888.96-0.77 886.78 0.26L886.78 0.26L886.78 0.26Q884.61 1.28 881.70 1.28L881.70 1.28L881.70 1.28Q878.78 1.28 876.42 0.51L876.42 0.51L876.42 0.51Q874.05-0.26 872.54-1.92ZM886.05-27.90L886.05-27.90L886.05-27.90Q885.31-26.75 884.67-24.80L884.67-24.80L884.67-24.80Q884.03-22.85 882.98-17.63L882.98-17.63L882.98-17.63Q881.92-12.42 881.92-8.70L881.92-8.70L881.92-8.70Q881.92-4.99 882.50-3.90L882.50-3.90L882.50-3.90Q883.07-2.82 884.10-2.82L884.10-2.82L884.10-2.82Q886.14-2.82 887.65-4.77L887.65-4.77L887.65-4.77Q889.15-6.72 889.73-10.18L889.73-10.18L893.12-28.93L893.12-28.93Q891.78-30.08 890.21-30.08L890.21-30.08L890.21-30.08Q888.64-30.08 887.71-29.57L887.71-29.57L887.71-29.57Q886.78-29.06 886.05-27.90Z" fill="url(#editing-shiny-gradient2)"></path></g></g><style>text {
  font-size: 64px;
  font-family: Arial Black;
  dominant-baseline: central;
  text-anchor: middle;
}</style></svg>